<svg width="33" height="12" viewBox="0 0 33 12" fill="none" xmlns="http://www.w3.org/2000/svg">
<path fill-rule="evenodd" clip-rule="evenodd" d="M23.2785 0.0697394C22.7756 0.104535 22.2959 0.155441 22.2124 0.182849C22.1289 0.210256 21.9844 0.233183 21.8911 0.233803C21.7979 0.234423 21.6327 0.257492 21.524 0.285138C21.4152 0.312736 21.1928 0.355635 21.0297 0.380564C20.8666 0.405445 20.699 0.444054 20.6571 0.466361C20.6152 0.488669 20.4595 0.522701 20.3111 0.541958C20.1627 0.561215 20.019 0.593341 19.9918 0.613313C19.9647 0.633285 19.8373 0.664267 19.7088 0.682237C19.5803 0.700159 19.4631 0.733811 19.4482 0.756976C19.4333 0.780141 19.316 0.813793 19.1876 0.831715C19.0591 0.849684 18.9308 0.881954 18.9026 0.903498C18.8743 0.925043 18.7631 0.963985 18.6555 0.990106C18.3958 1.05307 17.9853 1.18296 17.8851 1.23391C17.8408 1.25636 17.7238 1.2894 17.6251 1.30727C17.5263 1.32514 17.4332 1.3588 17.4184 1.38201C17.4035 1.40527 17.3425 1.42443 17.283 1.42457C17.2234 1.42476 17.115 1.45489 17.0421 1.49159C16.9692 1.52829 16.8358 1.57353 16.7456 1.59212C16.6554 1.61075 16.5594 1.64212 16.5322 1.6619C16.505 1.68168 16.3966 1.71285 16.2914 1.73116C16.1861 1.74946 16.0638 1.78316 16.0195 1.80599C15.9151 1.86 15.3033 2.02463 15.0495 2.06705C14.9408 2.08526 14.8296 2.11686 14.8024 2.13731C14.7752 2.15776 14.664 2.18993 14.5553 2.20881C14.4465 2.22768 14.3353 2.25995 14.3081 2.2805C14.281 2.30109 14.1531 2.33264 14.0239 2.35066C13.8948 2.36868 13.7892 2.40157 13.7892 2.42368C13.7892 2.44585 13.678 2.47874 13.5421 2.49675C13.4063 2.51477 13.2842 2.54647 13.2709 2.5672C13.2576 2.58794 13.1431 2.61992 13.0164 2.63822C12.8898 2.65653 12.7505 2.68946 12.707 2.71144C12.6634 2.73336 12.4053 2.79781 12.1335 2.85467C11.8617 2.91149 11.5392 2.98618 11.4169 3.02064C11.2945 3.0551 11.0944 3.09853 10.972 3.11716C10.8497 3.1358 10.7274 3.1674 10.7002 3.18742C10.673 3.20744 10.5173 3.23923 10.3542 3.25811C10.1911 3.27699 10.0355 3.30954 10.0083 3.33051C9.96009 3.3676 9.59816 3.42818 8.84683 3.52484C8.64295 3.55106 8.43167 3.59248 8.3773 3.61689C8.32294 3.64129 8.11165 3.68262 7.90778 3.70869C7.56053 3.75316 7.36906 3.78047 6.4992 3.90955C6.30892 3.93777 5.89772 3.98538 5.58541 4.01532C5.14747 4.05726 5.01432 4.08629 5.00325 4.14216C4.98526 4.2332 5.51004 4.39359 5.82951 4.39469C5.96192 4.39511 6.01253 4.40789 5.95668 4.42681C5.87004 4.45613 5.86965 4.46032 5.95085 4.49035C6.14009 4.56042 6.90359 4.50718 6.78102 4.43248C6.75468 4.41647 6.95855 4.39912 7.23399 4.39397C7.50942 4.38878 7.89048 4.36013 8.08076 4.33034C8.45668 4.27142 9.15814 4.173 9.86001 4.08057C10.1047 4.0484 10.3271 4.00836 10.3542 3.99168C10.3814 3.97499 10.5873 3.94592 10.8117 3.92714C11.0361 3.90831 11.2304 3.87623 11.2434 3.85588C11.2565 3.83553 11.4398 3.8034 11.6509 3.78448C11.862 3.76555 12.0569 3.73619 12.0841 3.71922C12.1356 3.6871 12.6024 3.61536 13.5031 3.5012C13.7943 3.46426 14.0553 3.42051 14.0831 3.40397C14.1109 3.38743 14.3285 3.34381 14.5668 3.30711C14.8051 3.27041 15.1446 3.2063 15.3213 3.16464C15.7175 3.07126 16.1906 2.97121 16.5816 2.89814C16.7447 2.86769 16.9004 2.82626 16.9276 2.80615C16.9548 2.78603 17.0984 2.75381 17.2469 2.73456C17.3953 2.7153 17.551 2.6816 17.5928 2.65967C17.6347 2.6377 17.769 2.59881 17.8913 2.57316C18.0137 2.54757 18.3028 2.48164 18.5339 2.42673C19.3572 2.23102 20.0551 2.08059 20.5355 1.99522C20.6986 1.96624 20.8765 1.92368 20.9309 1.90061C20.9853 1.87754 21.1298 1.84427 21.2521 1.82663C21.3745 1.80904 21.4968 1.78101 21.524 1.76438C21.5512 1.74774 21.718 1.7099 21.8947 1.6803C22.3316 1.60713 22.7463 1.5301 23.1302 1.45074C24.1735 1.2351 25.6201 1.08987 26.8617 1.07614C28.0304 1.06322 28.1715 1.03539 28.1715 0.818178C28.1715 0.736956 28.1158 0.688004 27.9367 0.61174C27.8076 0.556735 27.6318 0.481138 27.5462 0.44372C27.4605 0.406256 27.3562 0.375654 27.3144 0.375654C27.2725 0.375654 27.2258 0.356207 27.2106 0.33247C27.1953 0.308685 27.0661 0.274032 26.9235 0.25549C26.7808 0.236901 26.628 0.203392 26.5838 0.181085C26.4889 0.132991 24.8192 -0.00833623 24.4494 0.000386499C24.3083 0.0036754 23.7814 0.0348962 23.2785 0.0697394ZM22.7349 0.662837C22.1035 0.728567 20.8381 1.00955 20.6034 1.1361C20.5591 1.15994 20.4368 1.19445 20.3315 1.21275C20.2263 1.23105 20.1179 1.26165 20.0907 1.28072C20.0635 1.29979 19.83 1.37405 19.5717 1.44579C19.3135 1.51752 19.0681 1.59293 19.0265 1.61338C18.9848 1.63378 18.8776 1.66595 18.7884 1.68487C18.6991 1.7038 18.5664 1.74927 18.4935 1.78597C18.4205 1.82267 18.3153 1.8528 18.2596 1.85299C18.2039 1.85313 18.1371 1.87248 18.1113 1.89594C18.0855 1.91939 17.9642 1.96095 17.8419 1.98826C17.3194 2.10509 17.1692 2.14336 17.0759 2.18359C16.9723 2.22821 16.5404 2.3539 15.9144 2.52164C15.7105 2.57626 15.5095 2.63861 15.4677 2.6602C15.4258 2.68179 15.2981 2.71473 15.1838 2.73332C15.0694 2.75195 14.9643 2.78527 14.9501 2.80739C14.936 2.8295 14.8021 2.8623 14.6527 2.88032C14.5032 2.89833 14.3701 2.92998 14.3569 2.95067C14.3436 2.97136 14.2216 3.00305 14.0857 3.02107C13.9499 3.03909 13.8266 3.07264 13.8119 3.09567C13.7972 3.11864 13.6743 3.15163 13.5389 3.16898C13.4035 3.18628 13.2834 3.21507 13.2719 3.23294C13.2491 3.2685 13.5127 3.23223 14.0857 3.12093C14.2896 3.08132 14.645 3.01626 14.8755 2.97631C15.1059 2.93642 15.3283 2.89009 15.3697 2.87336C15.4111 2.85667 15.5894 2.81506 15.7661 2.78089C15.9428 2.74666 16.2319 2.68632 16.4086 2.64676C16.5853 2.60719 16.8411 2.551 16.977 2.52192C17.1129 2.49285 17.2595 2.45047 17.3027 2.42774C17.3459 2.405 17.5074 2.37116 17.6616 2.35257C17.8159 2.33398 17.9533 2.30133 17.9669 2.28002C17.9806 2.25871 18.114 2.22654 18.2635 2.20852C18.4129 2.19051 18.546 2.15886 18.5593 2.13817C18.5726 2.11748 18.7001 2.08555 18.8428 2.06724C18.9855 2.04894 19.3246 1.98106 19.5965 1.91643C19.8683 1.8518 20.213 1.77634 20.3625 1.74884C20.512 1.72129 20.6566 1.6823 20.6838 1.66218C20.711 1.64207 20.8555 1.61009 21.005 1.59112C21.1545 1.57215 21.2991 1.54016 21.3263 1.52005C21.3535 1.49993 21.5092 1.45813 21.6722 1.42715C21.8353 1.39617 22.1134 1.3413 22.29 1.30527C22.4667 1.26923 22.8003 1.20584 23.0314 1.16437C23.2625 1.12295 23.4849 1.07919 23.5256 1.06713C23.6314 1.03586 24.8204 0.902021 25.5746 0.836481C26.1818 0.783716 26.2075 0.777329 26.0689 0.713457C25.9554 0.661169 25.6074 0.643628 24.5141 0.635144C23.7394 0.629138 22.9387 0.641626 22.7349 0.662837ZM1.1565 2.74266C1.09793 2.86663 0.992477 2.58507 1.22422 2.78994C1.35816 2.90834 1.68967 3.25182 1.71992 3.32251C1.75996 3.41617 0.932872 3.33437 1.06132 3.35763C1.21469 3.38538 1.58027 3.21469 1.56866 3.32251C1.55877 3.41436 1.74052 3.37004 1.81377 3.38348C1.95314 3.40908 1.99207 3.51515 1.96083 3.59366C1.94541 3.63245 2.08799 3.61429 2.15694 3.64093C2.25984 3.68069 1.39899 3.07026 1.22422 3.0736C0.942361 3.07894 0.951406 3.02537 1.22422 3.02632C1.40788 3.02694 2.36583 3.48675 2.304 3.54638C2.29184 3.55815 2.27077 3.52979 1.96083 3.54638C1.6509 3.56296 2.16174 3.44977 2.10737 3.47103C2.05301 3.49234 1.76759 4.14892 2.10737 4.13338C2.44716 4.1178 2.50334 3.6163 2.54911 3.59366C2.59493 3.57097 2.36067 3.40454 2.42739 3.40454C2.51181 3.40454 2.11217 4.40226 2.10737 4.34526C2.53346 3.54638 2.43747 3.57846 2.66888 3.54638C2.9799 3.50324 3.23522 4.14716 3.18639 4.22338C3.17008 4.24883 3.14485 4.49193 3.03933 4.49193C2.93381 4.49193 3.08522 4.84072 2.66888 4.58649C2.62365 4.65708 2.78201 4.43868 2.88451 4.36637C2.93858 4.32824 2.9586 4.27486 2.93809 4.22338C2.91026 4.15345 2.8343 4.1412 2.42739 4.1412C1.94937 4.1412 1.94937 4.1412 1.6463 3.8433C1.4796 3.67947 1.33567 3.50382 1.32638 3.45306C1.31605 3.39639 1.25052 3.346 1.15651 3.32251C1.0504 3.296 0.910187 3.17465 0.699444 2.92698C0.532195 2.7305 1.42161 2.97905 0.39539 2.52864C0.39539 2.50605 0.731916 2.47292 1.14322 2.45505C1.99869 2.41782 1.90153 2.38541 2.4698 2.89748C2.67293 3.08051 2.84977 3.21998 2.86281 3.20739C2.87586 3.19481 2.31821 3.2103 2.15694 3.0736C1.99562 2.9369 2.0411 2.82784 1.96083 2.74266C1.81488 2.58775 2.02266 2.60082 1.22422 2.60082C0.425737 2.60082 1.21803 2.61239 1.1565 2.74266Z" fill="#C87632"/>
<path fill-rule="evenodd" clip-rule="evenodd" d="M30.7225 1.31824C31.2921 1.60594 31.2825 1.59688 31.137 1.70861C31.069 1.7608 30.996 1.80399 30.9748 1.80456C30.9535 1.80513 30.8534 1.84088 30.7524 1.88397C30.6513 1.92706 30.3351 2.02463 30.0497 2.1008C29.7642 2.17697 29.4084 2.27182 29.2589 2.31162C28.9165 2.40271 28.4315 2.50728 28.048 2.57273C27.8849 2.60056 27.6736 2.64327 27.5785 2.66758C27.4833 2.69194 27.2387 2.73274 27.0348 2.75829C26.4949 2.82592 26.1647 2.89113 25.7745 3.00719C25.4042 3.1173 24.6782 3.45796 24.3199 3.68971C24.1009 3.83137 24.1009 3.83137 24.8142 3.84476C26.4447 3.87546 27.9498 3.6541 29.506 3.15476C30.2436 2.91811 30.4593 2.83327 31.2602 2.46501C31.6517 2.28502 32.4225 1.82329 32.4212 1.76957C32.4204 1.73921 32.264 1.66919 31.7548 1.47124C31.496 1.37062 30.5241 1.13344 30.3956 1.13954C30.382 1.14021 30.5291 1.22062 30.7225 1.31824ZM26.244 1.66462C25.6324 1.7119 24.9318 1.78354 24.6872 1.82377C23.3104 2.05023 22.7379 2.16591 21.6723 2.43288C21.2737 2.53274 21.0009 2.59675 20.412 2.7285C20.2353 2.76806 19.746 2.88431 19.3247 2.98679C18.9034 3.08932 18.3362 3.22135 18.0644 3.28017C17.7926 3.33904 17.502 3.40701 17.4187 3.43132C17.3354 3.45558 17.1241 3.49543 16.9491 3.51988C16.7742 3.54433 16.4865 3.59562 16.3099 3.63389C16.1332 3.67212 15.7773 3.74915 15.5191 3.80506C15.2608 3.86097 14.7827 3.9572 14.4565 4.01893C14.1303 4.08066 13.7967 4.14515 13.7151 4.16231C12.5868 4.39939 10.5305 4.70521 8.57503 4.92666C7.75069 5.02004 6.62022 5.01985 6.35096 4.92628C6.24222 4.88853 6.1199 4.85717 6.07913 4.85659C6.03835 4.85602 5.94128 4.82351 5.86344 4.78438C5.78555 4.7452 5.69659 4.71303 5.66575 4.71288C5.63486 4.71269 5.54995 4.68257 5.477 4.64587C5.4041 4.60916 5.27619 4.56469 5.19281 4.54706C5.10943 4.52937 5.04123 4.4952 5.04123 4.47108C5.04123 4.44691 5.01345 4.4268 4.97945 4.42637C4.94549 4.42589 4.72862 4.32994 4.49757 4.21316C4.26651 4.09634 4.01628 3.97665 3.94155 3.94715C3.86677 3.91769 3.80563 3.87417 3.80563 3.85053C3.80563 3.82689 3.7825 3.80754 3.75423 3.80754C3.69571 3.80754 3.39408 3.61159 3.36907 3.5573C3.35998 3.53766 3.32963 3.52155 3.30156 3.52155C3.23246 3.52155 2.68608 3.104 2.31728 2.76935C2.15206 2.61944 1.98659 2.48012 1.94967 2.45981C1.86066 2.41086 0.39539 2.47578 0.39539 2.52864C0.39539 2.55124 0.532194 2.73051 0.699444 2.92698C0.910187 3.17465 1.0504 3.296 1.15651 3.32251C1.25052 3.346 1.31605 3.39639 1.32638 3.45306C1.33567 3.50382 1.4796 3.67947 1.6463 3.8433C1.94937 4.1412 1.94937 4.1412 2.42739 4.1412C2.8343 4.1412 2.91026 4.15345 2.93809 4.22338C2.98509 4.3414 2.83727 4.42718 2.58684 4.42718C2.3199 4.42718 2.34116 4.48948 2.6846 4.71317C2.94072 4.88 2.94072 4.88 3.47751 4.86489C3.77272 4.85659 4.06886 4.82976 4.13559 4.80531C4.29532 4.74673 4.8295 4.74806 4.86735 4.80712C4.88366 4.83257 4.83493 4.8667 4.75907 4.88305C4.6832 4.89935 4.58411 4.92228 4.53883 4.934C4.38157 4.97475 2.62811 5.14234 0.889628 5.28277C0.00726529 5.35402 0 5.35584 0 5.5055C0 5.62872 0 5.62872 0.383034 5.59897C0.874752 5.56079 1.3127 5.52862 2.05109 5.47648C2.37728 5.45345 2.90503 5.40893 3.22381 5.37757C3.73782 5.32695 3.81725 5.32919 3.92469 5.39707C4.10815 5.51299 5.03144 5.79578 5.33846 5.8301C5.61123 5.86056 6.82394 5.77166 7.83367 5.64726C8.13268 5.61037 8.5775 5.55574 8.82215 5.52581C9.0668 5.49592 9.38929 5.4515 9.53879 5.42714C9.6883 5.40283 10.0219 5.36036 10.2801 5.33281C10.5384 5.30526 10.7897 5.27075 10.8385 5.25617C10.8874 5.24158 11.1431 5.19949 11.4069 5.1626C11.6706 5.12576 12.0866 5.06336 12.3312 5.02404C12.5759 4.98467 12.954 4.93119 13.1714 4.90521C13.3889 4.87923 13.6447 4.83557 13.7398 4.80817C13.835 4.78071 14.0462 4.7381 14.2093 4.71341C14.6092 4.65287 15.1981 4.5462 15.4696 4.48514C15.592 4.45764 15.8811 4.39844 16.1122 4.35359C16.7235 4.23495 18.4075 3.86092 18.781 3.76087C19.486 3.57198 20.5941 3.36358 20.6659 3.40639C20.7149 3.43565 20.4928 3.66454 20.4153 3.66454C20.3984 3.66454 20.3172 3.72355 20.2348 3.79562C20.1525 3.86769 19.9307 4.04686 19.7419 4.19367C19.2371 4.58652 18.5833 5.17929 18.5833 5.24416C18.5833 5.29707 18.7384 5.29597 19.3741 5.23848C19.6596 5.21265 20.1433 5.17028 20.4491 5.14425C21.0052 5.09702 21.0052 5.09702 21.2152 4.87085C21.7626 4.28137 22.148 3.9165 22.4878 3.66607C22.9578 3.31969 23.602 2.9019 23.6661 2.9019C23.6931 2.9019 23.7226 2.88336 23.7317 2.86072C23.7606 2.78851 24.6705 2.38903 25.1567 2.23512C25.9605 1.98068 27.5045 1.72124 28.2951 1.70771C28.6905 1.70094 28.6905 1.70094 28.3693 1.63707C27.9561 1.55489 27.6041 1.55947 26.244 1.66462ZM22.8338 5.66199C22.793 5.68415 22.6517 5.71733 22.5198 5.73568C22.3274 5.76251 22.2393 5.80865 22.075 5.96881C21.7234 6.31137 21.697 6.45289 21.697 7.99652C21.697 9.33667 21.697 9.33667 21.9565 9.336C22.4711 9.33471 22.4263 9.45154 22.4461 8.05729C22.4618 6.94575 22.4722 6.8202 22.5599 6.68011C22.6658 6.51104 22.9005 6.38144 23.1007 6.38144C23.2485 6.38144 23.2475 6.38759 23.1725 5.94974C23.1232 5.66165 23.1024 5.61899 23.0119 5.62023C22.9547 5.62104 22.8746 5.63982 22.8338 5.66199ZM20.6591 5.94745C20.5525 5.97605 20.5312 6.01619 20.5035 6.24059C20.4858 6.38359 20.4747 7.16553 20.4787 7.97822C20.4862 9.45583 20.4862 9.45583 20.758 9.44363C21.3095 9.41894 21.2522 9.62761 21.2522 7.64366C21.2522 5.90479 21.2522 5.90479 21.0175 5.90956C20.8883 5.91218 20.7271 5.9292 20.6591 5.94745ZM17.9018 6.2261C17.6057 6.24231 17.5878 6.25036 17.5229 6.39569C17.3739 6.72963 17.3072 6.89208 17.2252 7.12025C17.1781 7.25133 17.121 7.40147 17.0983 7.4539C17.0756 7.50633 17.0419 7.6243 17.0234 7.71606C17.005 7.80781 16.9566 7.94571 16.9159 8.0225C16.8293 8.1857 16.6207 8.7155 16.5486 8.95535C16.5209 9.0471 16.4782 9.14253 16.4535 9.16746C16.4289 9.19234 16.4087 9.24272 16.4087 9.27942C16.4087 9.31608 16.3763 9.41369 16.3368 9.4963C16.2972 9.5789 16.2189 9.76117 16.1627 9.90135C16.0604 10.1562 16.0604 10.1562 16.321 10.126C16.4644 10.1094 16.6728 10.0733 16.7843 10.0457C16.9778 9.99788 16.9891 9.98467 17.039 9.74954C17.091 9.50368 17.2069 9.17065 17.2573 9.12203C17.3117 9.0696 18.7585 8.88914 18.8508 8.92332C18.912 8.94596 18.9665 9.04372 19.1567 9.4717C19.2444 9.66894 19.2564 9.67714 19.4225 9.65378C19.7198 9.61203 20.127 9.53214 20.1485 9.51131C20.1673 9.4932 20.1245 9.38347 19.9407 8.97918C19.9049 8.90053 19.8372 8.75039 19.7902 8.64553C19.7432 8.54066 19.597 8.23484 19.4653 7.96597C19.3336 7.69709 19.2259 7.46744 19.2259 7.45571C19.2259 7.44394 19.1614 7.29932 19.0827 7.13431C19.0039 6.96929 18.8716 6.6895 18.7887 6.51252C18.619 6.15041 18.7159 6.18168 17.9018 6.2261ZM13.5421 6.66943C11.6069 6.8375 11.7876 6.61958 11.7876 8.78585C11.7876 10.7374 11.7876 10.7374 12.0841 10.7255C12.2472 10.7189 12.453 10.689 12.5413 10.659C12.7019 10.6045 12.7019 10.6045 12.7019 9.92504C12.7019 9.24567 12.7019 9.24567 12.8873 9.21912C12.9892 9.20454 13.1674 9.17137 13.2833 9.14548C13.7312 9.04534 13.7917 9.07122 14.1105 9.49935C14.3893 9.87385 14.7017 10.2692 14.7374 10.2928C14.7944 10.3304 15.5204 10.2532 15.6579 10.1949C15.772 10.1465 15.772 10.1465 15.6302 9.94416C15.5523 9.83286 15.4175 9.63996 15.3308 9.51541C15.2441 9.39086 15.1028 9.19343 15.0168 9.07661C14.8606 8.86421 14.8606 8.86421 15.0731 8.65954C15.3909 8.35353 15.4812 8.11192 15.4613 7.62073C15.4432 7.17235 15.338 6.9099 15.111 6.74641C14.9567 6.63535 14.3036 6.60327 13.5421 6.66943ZM10.5643 6.94098C10.3898 6.95156 10.2783 6.98026 10.2755 7.01539C10.2728 7.04684 10.2747 7.46949 10.2795 7.95458C10.2888 8.90177 10.2213 9.57409 10.0976 9.76565C9.89608 10.0778 9.52683 10.2371 8.92485 10.2717C8.38682 10.3026 8.18898 10.2267 8.03137 9.92871C7.94102 9.75788 7.93153 9.63524 7.9213 8.50253C7.91008 7.26324 7.91008 7.26324 7.40492 7.27568C7.12711 7.28255 6.88691 7.30819 6.87124 7.33269C6.83412 7.39056 6.85424 9.60783 6.89521 9.97862C6.96623 10.6209 7.33988 11.0789 7.93252 11.2502C8.2041 11.3287 8.35326 11.3441 8.62638 11.322C9.02651 11.2896 9.65449 11.1717 9.83533 11.095C10.7362 10.7128 10.9335 10.4897 11.1209 9.64115C11.1548 9.48791 11.2007 7.23312 11.1754 6.96534C11.172 6.92892 11.1073 6.90928 11.0092 6.91476C10.9208 6.91972 10.7206 6.93154 10.5643 6.94098ZM18.0033 7.25133C17.9766 7.28412 17.9144 7.41815 17.8651 7.54923C17.8158 7.68031 17.7606 7.80901 17.7423 7.83522C17.724 7.86144 17.6946 7.92188 17.6769 7.96954C17.647 8.05043 17.672 8.05405 18.0523 8.02355C18.2764 8.00558 18.479 7.97378 18.5025 7.95286C18.5527 7.9082 18.4094 7.51201 18.2746 7.32282C18.1738 7.18135 18.0803 7.15671 18.0033 7.25133ZM3.75621 7.47325C3.71543 7.49542 3.57314 7.52874 3.44004 7.54728C3.30695 7.56582 3.16238 7.59933 3.11879 7.62178C3.0752 7.64418 2.88966 7.72807 2.7064 7.8082C2.27493 7.99685 2.01763 8.22541 1.82626 8.58995C1.5438 9.12794 1.47851 9.39815 1.47762 10.0329C1.47673 10.6828 1.54993 10.9614 1.82987 11.3738C2.19481 11.9115 2.77411 12.0782 3.89361 11.9677C4.79925 11.8783 5.3654 11.6446 5.82514 11.1701C6.30475 10.6751 6.47452 10.2041 6.47452 9.36851C6.47452 8.80373 6.3733 8.29781 6.21603 8.07655C6.01888 7.79909 5.62344 7.5254 5.41971 7.5254C5.37785 7.5254 5.32986 7.50395 5.31306 7.47773C5.27569 7.41944 3.86277 7.41534 3.75621 7.47325ZM13.5421 7.5335C12.6695 7.63222 12.7285 7.59952 12.712 7.99361C12.6974 8.34262 12.6974 8.34261 13.1074 8.31144C13.3329 8.29428 13.5841 8.26206 13.6657 8.2398C13.7472 8.21754 13.9253 8.1858 14.0613 8.16931C14.4017 8.12803 14.5504 8.01168 14.5504 7.78651C14.5504 7.47659 14.3933 7.43717 13.5421 7.5335ZM4.19692 8.5461C4.1856 8.55692 4.00931 8.58814 3.80519 8.6155C3.05434 8.71607 2.79482 8.94915 2.66251 9.64163C2.57468 10.1014 2.71178 10.6387 2.95806 10.8C3.14197 10.9205 4.04351 10.9144 4.49757 10.7898C4.91811 10.6743 5.06619 10.5636 5.22029 10.2494C5.32734 10.0311 5.3477 9.92156 5.34889 9.55616C5.35077 8.99386 5.25869 8.78533 4.94238 8.63556C4.74567 8.54243 4.26142 8.48432 4.19692 8.5461Z" fill="#13587B"/>
</svg>
